<?xml version="1.0" encoding="utf-8"?>
<!-- Generator: Adobe Illustrator 25.0.1, SVG Export Plug-In . SVG Version: 6.00 Build 0)  -->
<svg version="1.1" id="Layer_1" xmlns="http://www.w3.org/2000/svg" xmlns:xlink="http://www.w3.org/1999/xlink" x="0px" y="0px"
	 viewBox="0 0 368.5 368.5" style="enable-background:new 0 0 368.5 368.5;" xml:space="preserve">
<style type="text/css">
	.st0{fill-rule:evenodd;clip-rule:evenodd;fill:#E8501E;}
	.st1{fill-rule:evenodd;clip-rule:evenodd;fill:#701D18;}
	.st2{fill-rule:evenodd;clip-rule:evenodd;fill:#FFFFFF;}
</style>
<g>
	<path class="st0" d="M326.66,184.25c0-79.45-63.75-143.84-142.41-143.84S41.84,104.8,41.84,184.25s63.75,143.84,142.41,143.84
		S326.66,263.7,326.66,184.25L326.66,184.25z"/>
	<path class="st1" d="M266.31,184.25c0-45.75-36.74-82.86-82.06-82.86c-45.3,0-82.03,37.1-82.03,82.86
		c0,45.78,36.74,82.88,82.03,82.88C229.58,267.14,266.31,230.03,266.31,184.25L266.31,184.25z"/>
	<path class="st2" d="M184.37,135.41c-0.03,0.83-0.09,11.74,1.62,12.28c1.47,0.43,4.45-5.87,5.1-7.39
		c-0.23-0.23-0.37-0.57-0.37-0.92c0-0.77,0.6-1.4,1.36-1.4c0.74,0,1.36,0.63,1.36,1.4c0,0.72-0.57,1.32-1.28,1.35
		c-1.9,4.15-2.21,8.56-2.21,8.56s3.29,1.95,1.64,7.21c-1.08,3.52-4.65,6.96-7.8,8.76c-3.15-1.8-6.69-5.24-7.8-8.76
		c-1.64-5.27,1.64-7.21,1.64-7.21s-0.28-4.41-2.18-8.56c-0.74-0.03-1.3-0.63-1.3-1.35c0-0.77,0.62-1.4,1.36-1.4
		c0.77,0,1.36,0.63,1.36,1.4c0,0.34-0.11,0.69-0.34,0.92c0.62,1.52,3.6,7.82,5.1,7.39c1.7-0.54,1.62-11.45,1.62-12.28
		c-0.45-0.2-0.79-0.69-0.79-1.23c0-0.74,0.6-1.35,1.33-1.35c0.74,0,1.33,0.6,1.33,1.35C185.13,134.72,184.82,135.21,184.37,135.41
		L184.37,135.41z M184,101.42c-0.96,0.52-10.57,5.58-16.53,11.77c-6.66,6.93-11.54,16.75-12.42,26.43
		c-0.57,6.01,0.06,11.85,0.06,11.85c0.77,6.1,2.21,11.68,4.31,17.44c1.64,4.52,2.66,6.93,3.69,11.77c0.71,3.35,1.33,7.44,1.11,10.79
		c-0.43,6.1-1.02,9.56-3.37,14.95c-1.62,3.69-3.4,6.93-5.41,10.51c-2.81,4.98-4.9,11.14-4.48,19.55c0.2,4.15,0.79,7.36,1.59,9.91
		c1.36,4.32,3.32,6.76,4.88,8.73c0.68-2.26,1.62-4.58,2.86-6.79c5.44-9.59,5.73-9.68,5.73-9.68s-6.52,17.58,2.15,26.71
		c0,0-3.63-7.84,0.99-23.99c3.77-13.26,5.39-22.39,5.7-24.77c1.62-12.94,4.31-24.85,3.66-38.16c-0.2-4.15-0.74-7.5-2.04-11.57
		c-1.87-5.87-2.44-6.44-2.55-11.08c0,0,0.82,3.64,2.41,6.07c0.57,0.86,1.59,2.46,2.92,4.35c2.3,3.18,4.48,7.47,4.54,10.31h0.06
		c0.06-2.83,2.27-7.13,4.54-10.31c1.36-1.89,2.35-3.49,2.92-4.35c1.62-2.43,2.44-6.07,2.44-6.07c-0.11,4.64-0.71,5.21-2.58,11.08
		c-1.3,4.07-1.81,7.42-2.04,11.57c-0.65,13.31,2.04,25.22,3.66,38.16c0.31,2.38,1.93,11.51,5.73,24.77
		c4.59,16.15,0.96,23.99,0.96,23.99c8.67-9.13,2.18-26.71,2.18-26.71s0.26,0.09,5.7,9.68c1.3,2.32,2.27,4.78,2.98,7.19
		c1.62-2.06,3.71-4.52,5.16-9.13c0.82-2.55,1.42-5.75,1.62-9.91c0.4-8.42-1.7-14.57-4.51-19.55c-2.01-3.58-3.8-6.81-5.41-10.51
		c-2.32-5.38-2.95-8.85-3.34-14.95c-0.23-3.35,0.37-7.44,1.08-10.79c1.02-4.84,2.04-7.24,3.69-11.77c2.1-5.75,3.54-11.34,4.34-17.44
		c0,0,0.6-5.84,0.06-11.85c-0.91-9.68-5.78-19.5-12.44-26.43C194.6,107.01,184.96,101.94,184,101.42L184,101.42z M157.04,256.4
		c-1.33-1.17-4.62-4.41-6.94-9.36c-2.27-4.84-2.83-8.76-2.98-10.31c-0.68-7.62,0.99-14.8,4.79-21.5c0,0,2.95-4.52,5.53-9.85
		s3.37-15.78,1.45-23.79c-1.93-7.99-3.43-10.97-3.43-10.97s-3-7.82-3.71-12.02c0,0-0.96,8.36-3.57,14.4c0,0-2.89,6.81-6.24,12.54
		s-6.75,10.62-7.88,14.11c-1.08,3.41-4.93,17.21,0.09,31.24c4.22,11.91,11.79,21.59,22.14,28.74
		C156.47,258.6,156.73,257.52,157.04,256.4L157.04,256.4z M156.22,259.98c-11.79-6.41-19.93-16.03-25-27.91
		c-3.94-9.28-4.2-23.59-1.02-33.21c1.79-5.44,4.22-10.11,7.23-15c2.47-4.01,4.56-8.3,6.12-12.31c2.15-5.58,5.47-15.89,5.81-21.24
		c0.09-1.55,0.26-7.19,0.43-10.99c0.26-4.87,2.24-26,25.14-36.68l2.32-0.94c-14.94,1.29-26.48,5.33-37.62,15.46
		c-8.16,7.42-13.78,17.38-15.11,28.37c-0.74,5.98-0.82,9.22-0.26,13.63c0.68,5.15,2.49,17.44,1.9,22.59
		c-0.43,3.75-2.44,13.23-3.26,16.29c-0.85,3.03-1.81,11.62-0.09,20.33s7.4,27.49,26.53,39.37c-8.5-3.61-19.11-13.26-23.44-21.24
		c-0.77-1.43-5.41-10.05-6.75-17.72c-1.47-8.39-1.9-13.08-0.65-21.27c1.28-8.19,3.09-12.43,3.12-15.86
		c0.06-3.46-0.03-11.45-1.73-17.87c-1.7-6.41-1.08-15.26-0.51-18.5c0.54-3.01,2.95-12.6,8.79-21.5
		c-15.99,15.12-25.97,36.62-25.97,60.5c0,35.7,22.34,66.11,53.66,77.79C155.96,261.38,156.08,260.69,156.22,259.98L156.22,259.98z
		 M151.31,181.27c0,0-1.05,5.47-5.39,9.36c-4.34,3.89-6.63,7.13-6.63,7.13s-3.49,4.87-1.56,10.36c1.22,3.52,5.19,4.75,8.59,3.69
		c1.13-0.37,4.85-2.29,6.18-8.42C154.06,196.16,152.53,185.74,151.31,181.27L151.31,181.27z M144.79,195.5
		c-1.16,0.94-2.72,2.66-3.54,4.01c-0.91,1.52-2.44,5.1-1.11,7.76c0.91,1.89,2.92,2.58,4.9,2.2c2.95-0.6,4.68-3.69,5.41-6.41
		c0.34-1.23,0.34-3.66,0.23-4.9c0,0-2.32,4.64-5.36,3.29C142.3,200.11,144.79,195.5,144.79,195.5L144.79,195.5z M148.17,119.15
		c0,0-2.49,3.35-2.3,12.25s0.28,12.25,0.14,14.57c-0.17,2.35-0.96,9.45-6.21,12.23c-2.07,1.09-4.51,0.74-6.04,0
		c-5.73-2.72-5.53-11.37-4.34-16.72C130.03,138.84,133.68,125.65,148.17,119.15L148.17,119.15z M142.84,139.45
		c0,0,1.62,5.93-0.48,11.02c-1.16,2.86-3.06,5.07-6.24,4.7c-3.17-0.34-5.1-5.38-5.05-8.76c0.03-1.26,0.4-6.21,4.17-9.71
		c0,0-1.39,6.87,2.58,7.9C141.76,145.6,142.84,139.45,142.84,139.45L142.84,139.45z M113.47,155.62c0,0,0.48,8.88,2.86,15.12
		c2.41,6.24,2.1,12.4,1.67,14.66c-0.45,2.26-1.96,6.38-5.33,6.56c-2.18,0.11-3.74-1.12-4.88-2.89c-0.85-1.37-2.95-5.75-1.81-14.6
		C107.4,163.49,113.47,155.62,113.47,155.62L113.47,155.62z M109.25,173.63c0,0-2.47,4.92-1.11,10.85c1.11,4.67,3.54,4.9,4.51,4.81
		c2.52-0.29,3.43-3.41,3.66-5.53c0.54-5.1-1.42-9.45-1.42-9.45s-0.23,4.49-2.49,4.64C110.13,179.13,109.45,175.03,109.25,173.63
		L109.25,173.63z M210.64,256.69c0.96-0.8,4.71-4.21,7.26-9.65c2.27-4.84,2.83-8.76,2.98-10.31c0.71-7.62-0.99-14.8-4.79-21.5
		c0,0-2.92-4.52-5.5-9.85s-3.4-15.78-1.47-23.79c1.93-7.99,3.43-10.97,3.43-10.97s3.03-7.82,3.74-12.02c0,0,0.94,8.36,3.54,14.4
		c0,0,2.89,6.81,6.24,12.54c3.34,5.73,6.77,10.62,7.88,14.11c1.08,3.41,4.93,17.21-0.06,31.24c-4.28,12-11.93,21.73-22.42,28.92
		l0.11,0.29c11.91-6.38,20.1-16.06,25.2-28.03c3.94-9.28,4.2-23.59,1.02-33.21c-1.79-5.44-4.22-10.11-7.23-15
		c-2.47-4.01-4.56-8.3-6.09-12.31c-2.18-5.58-5.47-15.89-5.81-21.24c-0.11-1.55-0.28-7.19-0.45-10.99
		c-0.23-4.87-2.24-26-25.14-36.68l-2.44-1c15.31,1.2,26.33,5.12,37.73,15.52c8.16,7.42,13.8,17.38,15.11,28.37
		c0.74,5.98,0.82,9.22,0.26,13.63c-0.68,5.15-2.47,17.44-1.9,22.59c0.45,3.75,2.47,13.23,3.29,16.29
		c0.82,3.03,1.81,11.62,0.06,20.33c-1.73,8.7-7.4,27.49-26.53,39.37c8.5-3.61,19.11-13.26,23.44-21.24
		c0.79-1.43,5.44-10.05,6.77-17.72c1.45-8.39,1.87-13.08,0.62-21.27c-1.28-8.19-3.06-12.43-3.12-15.86
		c-0.03-3.46,0.06-11.45,1.73-17.87c1.7-6.41,1.08-15.26,0.51-18.5c-0.54-3.15-3.17-13.54-9.64-22.76
		c16.78,15.17,27.35,37.22,27.35,61.76c0,36.02-22.76,66.68-54.57,78.1C211.52,260.61,211.18,258.69,210.64,256.69L210.64,256.69z
		 M216.68,181.27c0,0,1.08,5.47,5.41,9.36c4.31,3.89,6.6,7.13,6.6,7.13s3.49,4.87,1.56,10.36c-1.19,3.52-5.19,4.75-8.56,3.69
		c-1.16-0.37-4.85-2.29-6.18-8.42C213.93,196.16,215.46,185.74,216.68,181.27L216.68,181.27z M223.23,195.5
		c1.16,0.94,2.72,2.66,3.51,4.01c0.94,1.52,2.44,5.1,1.13,7.76c-0.94,1.89-2.95,2.58-4.93,2.2c-2.95-0.6-4.68-3.69-5.41-6.41
		c-0.34-1.23-0.34-3.66-0.23-4.9c0,0,2.32,4.64,5.36,3.29C225.72,200.11,223.23,195.5,223.23,195.5L223.23,195.5z M219.83,119.15
		c0,0,2.49,3.35,2.3,12.25s-0.28,12.25-0.11,14.57c0.14,2.35,0.94,9.45,6.18,12.23c2.07,1.09,4.51,0.74,6.07,0
		c5.7-2.72,5.5-11.37,4.31-16.72C237.97,138.84,234.34,125.65,219.83,119.15L219.83,119.15z M225.16,139.45
		c0,0-1.59,5.93,0.48,11.02c1.19,2.86,3.06,5.07,6.26,4.7c3.15-0.34,5.1-5.38,5.02-8.76c-0.03-1.26-0.4-6.21-4.17-9.71
		c0,0,1.39,6.87-2.55,7.9C226.23,145.6,225.16,139.45,225.16,139.45L225.16,139.45z M254.52,155.62c0,0-0.45,8.88-2.86,15.12
		c-2.41,6.24-2.1,12.4-1.64,14.66c0.43,2.26,1.93,6.38,5.3,6.56c2.18,0.11,3.77-1.12,4.88-2.89c0.85-1.37,2.98-5.75,1.81-14.6
		C260.59,163.49,254.52,155.62,254.52,155.62L254.52,155.62z M258.75,173.63c0,0,2.49,4.92,1.11,10.85
		c-1.08,4.67-3.51,4.9-4.51,4.81c-2.52-0.29-3.4-3.41-3.66-5.53c-0.54-5.1,1.42-9.45,1.42-9.45s0.26,4.49,2.52,4.64
		C257.87,179.13,258.58,175.03,258.75,173.63L258.75,173.63z M184.25,94.3c49.18,0,89.06,40.28,89.06,89.96
		c0,39.85-25.68,73.67-61.26,85.46c-1.08,14-14.46,25.4-28.26,25.54c-13.92-0.14-27.21-11.08-28.26-25.82
		c-35.09-12.08-60.35-45.64-60.35-85.18C95.19,134.58,135.07,94.3,184.25,94.3L184.25,94.3z M192.02,116.71
		c1.56,1.72,5.07,6.21,6.09,8.47c4.88,8.59,1.67,16.29,1.67,16.29c0.85-7.7-3.74-13-5.44-14.8c-1.79-1.89-3.6-3.52-5.5-5.33
		c-3.8-3.64-4.93-7.99-5.05-8.42c-0.11,0.43-1.25,4.78-5.05,8.42c-1.87,1.8-3.71,3.44-5.47,5.33c-1.73,1.8-6.32,7.1-5.47,14.8
		c0,0-3.2-7.7,1.7-16.29c0.99-2.26,4.51-6.76,6.07-8.47c4.17-4.58,5.81-6.47,8.22-12.25C186.21,110.24,187.85,112.13,192.02,116.71
		L192.02,116.71z"/>
	<path class="st1" d="M340.16,184.25c0-86.95-69.79-157.47-155.91-157.47c-86.09,0-155.91,70.52-155.91,157.47
		c0,86.98,69.82,157.47,155.91,157.47C270.37,341.72,340.16,271.23,340.16,184.25L340.16,184.25z M333.18,184.25
		c0-83.06-66.67-150.4-148.93-150.4c-82.23,0-148.9,67.34-148.9,150.4c0,83.09,66.67,150.42,148.9,150.42
		C266.51,334.68,333.18,267.34,333.18,184.25L333.18,184.25z"/>
	<path class="st1" d="M240.07,58.11c12.78,0,23.16,10.48,23.16,23.39c0,12.94-10.37,23.42-23.16,23.42
		c-12.81,0-23.19-10.48-23.19-23.42C216.88,68.59,227.25,58.11,240.07,58.11L240.07,58.11z M240.07,70.59
		c5.95,0,10.8,4.9,10.8,10.91c0,6.04-4.85,10.91-10.8,10.91c-5.98,0-10.83-4.87-10.83-10.91C229.24,75.49,234.09,70.59,240.07,70.59
		L240.07,70.59z"/>
	<path class="st1" d="M194.37,43.62c8.31,0,15.56,4.38,19.67,10.99c0.37,0.8,0.6,1.75,0.6,2.69c0,3.49-2.78,6.3-6.21,6.3
		c-2.04,0-3.83-0.97-4.96-2.49v0.03c-1.93-3.01-5.27-5.01-9.1-5.01c-5.95,0-10.8,4.87-10.8,10.91c0,6.01,4.85,10.91,10.8,10.91
		c2.52,0,4.85-0.86,6.66-2.32c-0.03,0.03-0.09,0.06-0.14,0.11c1.05-0.77,2.32-1.23,3.69-1.23c3.43,0,6.24,2.81,6.24,6.3
		c0,1.66-0.65,3.18-1.73,4.32c-4,3.32-9.13,5.3-14.71,5.3c-12.78,0-23.16-10.48-23.16-23.39C171.21,54.1,181.59,43.62,194.37,43.62
		L194.37,43.62z"/>
	<path class="st1" d="M165.54,91.72c2.27,0,4.14-1.86,4.14-4.18c0-2.29-1.87-4.18-4.14-4.18s-4.14,1.89-4.14,4.18
		C161.4,89.86,163.28,91.72,165.54,91.72L165.54,91.72z"/>
	<path class="st1" d="M118.37,95.18L118.37,95.18l21.88-9.59c0,0,2.72-0.86,1.42-3.55l-5.67-13.31c0,0-0.74-2.46-3.46-1.49
		l-5.95,2.52l0,0c-0.74,0.29-1.53,0.46-2.38,0.46c-3.43,0-6.18-2.78-6.18-6.24c0-2.58,1.56-4.81,3.8-5.75l0,0l14.54-6.36
		c0,0,4.85-2,7.09,2.26l13.41,31.26c0,0,2.52,5.35-2.07,7.87l-31.55,13.37l0,0c-0.74,0.31-1.53,0.49-2.38,0.49
		c-3.43,0-6.18-2.78-6.18-6.24C114.69,98.33,116.19,96.16,118.37,95.18L118.37,95.18z"/>
</g>
</svg>
